<svg width="199" height="199" viewBox="0 0 199 199" fill="none" xmlns="http://www.w3.org/2000/svg">
<path d="M85.8125 99H111.938C116.229 99 119.854 97.5625 122.812 94.6875C125.812 91.7708 127.312 87.6667 127.312 82.375C127.312 78.4167 125.75 74.875 122.625 71.75C119.5 68.5833 115.938 67 111.938 67H73.3125V148H68.8125V62.5H111.938C117.188 62.5 121.812 64.5208 125.812 68.5625C129.812 72.6042 131.812 77.2083 131.812 82.375C131.812 88.75 129.875 93.875 126 97.75C122.125 101.583 117.438 103.5 111.938 103.5H85.8125V99ZM85.8125 108H111.938C116.271 108 120.271 106.958 123.938 104.875C127.646 102.75 130.625 99.7083 132.875 95.75C135.167 91.7917 136.312 87.3333 136.312 82.375C136.312 75.9583 133.854 70.2917 128.938 65.375C124.062 60.4583 118.396 58 111.938 58H64.3125V148H59.8125V53.5H111.938C116.979 53.5 121.729 54.8333 126.188 57.5C130.646 60.1667 134.188 63.7292 136.812 68.1875C139.479 72.6458 140.812 77.375 140.812 82.375C140.812 88.0417 139.479 93.2083 136.812 97.875C134.146 102.5 130.604 106.104 126.188 108.688C121.812 111.229 117.062 112.5 111.938 112.5H85.8125V108ZM85.8125 117H111.938C116.396 117 120.667 116.125 124.75 114.375C128.833 112.583 132.375 110.188 135.375 107.188C138.417 104.146 140.833 100.479 142.625 96.1875C144.417 91.8542 145.312 87.25 145.312 82.375C145.312 76.5417 143.792 71.0625 140.75 65.9375C137.708 60.7708 133.604 56.6667 128.438 53.625C123.312 50.5417 117.812 49 111.938 49H55.3125V148H50.8125V44.5H111.938C118.604 44.5 124.854 46.25 130.688 49.75C136.521 53.2083 141.167 57.8542 144.625 63.6875C148.083 69.5208 149.812 75.75 149.812 82.375C149.812 88.2917 148.792 93.75 146.75 98.75C144.708 103.708 141.958 107.833 138.5 111.125C135.042 114.417 131.021 116.979 126.438 118.812C121.854 120.604 117.021 121.5 111.938 121.5H85.8125V117ZM82.3125 148H77.8125V71.5H111.938C114.896 71.5 117.438 72.5833 119.562 74.75C121.729 76.9167 122.812 79.4583 122.812 82.375C122.812 90.4583 119.188 94.5 111.938 94.5H85.8125V90H111.938C113.938 90 115.5 89.4375 116.625 88.3125C117.75 87.1875 118.312 85.2083 118.312 82.375C118.312 80.5417 117.688 79.0208 116.438 77.8125C115.229 76.6042 113.729 76 111.938 76H82.3125V148Z" fill="black"/>
</svg>
