<svg width="468" height="155" viewBox="0 0 468 155" fill="none" xmlns="http://www.w3.org/2000/svg">
<rect width="468" height="155" fill="white"/>
<rect x="20" y="27.5" width="100" height="100" rx="20" fill="#E2FF60" fill-opacity="0.9"/>
<g clip-path="url(#clip0_1948_16)">
<path d="M67.754 87.743C65.4147 87.743 63.4717 87.3273 61.925 86.496C60.3977 85.6453 59.257 84.379 58.503 82.697C57.749 80.9957 57.372 78.8787 57.372 76.346V71.271H63.027V75.766C63.027 78.2213 63.5683 80.0193 64.651 81.16C65.7337 82.2813 67.319 82.842 69.407 82.842C71.379 82.842 72.9547 82.378 74.134 81.45C75.3133 80.522 76.0963 79.2653 76.483 77.68L76.744 82.697H76.135C75.845 83.6057 75.3423 84.4467 74.627 85.22C73.931 85.974 73.0127 86.583 71.872 87.047C70.7313 87.511 69.3587 87.743 67.754 87.743ZM57.372 72.402V67.008C57.372 66.022 57.1883 65.297 56.821 64.833C56.473 64.3497 55.8737 64.108 55.023 64.108C54.7137 64.108 54.3947 64.137 54.066 64.195C53.7567 64.253 53.457 64.3303 53.167 64.427L53.515 60.193C54.0177 60.019 54.559 59.8837 55.139 59.787C55.7383 59.671 56.3763 59.613 57.053 59.613C59.0443 59.613 60.533 60.1543 61.519 61.237C62.5243 62.3197 63.027 63.992 63.027 66.254V72.402H57.372ZM76.425 80.145V59.932H82.08V80.145H76.425ZM76.425 94.5V76.288H82.08V94.5H76.425Z" fill="#232323"/>
</g>
<path d="M149.456 93.128V83.036H140.466V78.396H149.456V68.304H154.56V78.396H163.492V83.036H154.56V93.128H149.456Z" fill="#232323"/>
<rect x="184" y="27.5" width="100" height="100" rx="20" fill="#E2FF60" fill-opacity="0.9"/>
<g clip-path="url(#clip1_1948_16)">
<path d="M225.446 82.61V77.796H235.683C238.003 77.796 239.685 77.2257 240.729 76.085C241.792 74.925 242.324 73.3203 242.324 71.271V68.748C242.324 66.6407 241.802 65.0263 240.758 63.905C239.714 62.7837 238.042 62.223 235.741 62.223H225.417V57.438H235.857C240.11 57.438 243.213 58.424 245.166 60.396C247.138 62.3487 248.124 65.0843 248.124 68.603V71.416C248.124 74.9347 247.138 77.68 245.166 79.652C243.194 81.624 240.081 82.61 235.828 82.61H225.446ZM221.618 94.5V57.438H227.331V79.217L227.36 81.827V94.5H221.618Z" fill="#232323"/>
</g>
<path d="M305.104 79.092V74.452H326.854V79.092H305.104ZM305.046 90.112V85.472H326.796V90.112H305.046Z" fill="#232323"/>
<rect x="348" y="27.5" width="100" height="100" rx="20" fill="#E2FF60" fill-opacity="0.9"/>
<path d="M387.254 87.743C384.915 87.743 382.972 87.3273 381.425 86.496C379.898 85.6453 378.757 84.379 378.003 82.697C377.249 80.9957 376.872 78.8787 376.872 76.346V71.271H382.527V75.766C382.527 78.2213 383.068 80.0193 384.151 81.16C385.234 82.2813 386.819 82.842 388.907 82.842C390.879 82.842 392.455 82.378 393.634 81.45C394.813 80.522 395.596 79.2653 395.983 77.68L396.244 82.697H395.635C395.345 83.6057 394.842 84.4467 394.127 85.22C393.431 85.974 392.513 86.583 391.372 87.047C390.231 87.511 388.859 87.743 387.254 87.743ZM376.872 72.402V67.008C376.872 66.022 376.688 65.297 376.321 64.833C375.973 64.3497 375.374 64.108 374.523 64.108C374.214 64.108 373.895 64.137 373.566 64.195C373.257 64.253 372.957 64.3303 372.667 64.427L373.015 60.193C373.518 60.019 374.059 59.8837 374.639 59.787C375.238 59.671 375.876 59.613 376.553 59.613C378.544 59.613 380.033 60.1543 381.019 61.237C382.024 62.3197 382.527 63.992 382.527 66.254V72.402H376.872ZM395.925 80.145V59.932H401.58V80.145H395.925ZM395.925 94.5V76.288H401.58V94.5H395.925Z" fill="#232323"/>
<path d="M399.946 82.61V77.796H410.183C412.503 77.796 414.185 77.2257 415.229 76.085C416.292 74.925 416.824 73.3203 416.824 71.271V68.748C416.824 66.6407 416.302 65.0263 415.258 63.905C414.214 62.7837 412.542 62.223 410.241 62.223H399.917V57.438H410.357C414.61 57.438 417.713 58.424 419.666 60.396C421.638 62.3487 422.624 65.0843 422.624 68.603V71.416C422.624 74.9347 421.638 77.68 419.666 79.652C417.694 81.624 414.581 82.61 410.328 82.61H399.946ZM396.118 94.5V57.438H401.831V79.217L401.86 81.827V94.5H396.118Z" fill="#232323"/>
<defs>
<clipPath id="clip0_1948_16">
<rect width="35" height="80" fill="white" transform="translate(52.5 41.5)"/>
</clipPath>
<clipPath id="clip1_1948_16">
<rect width="33" height="80" fill="white" transform="translate(217.5 41.5)"/>
</clipPath>
</defs>
</svg>
