<svg width="1144" height="199" viewBox="0 0 1144 199" fill="none" xmlns="http://www.w3.org/2000/svg">
<rect x="40" y="22" width="155" height="155" rx="20" fill="#E2FF60" fill-opacity="0.9"/>
<path d="M93.664 128.088C88.5013 128.088 84.2133 127.171 80.8 125.336C77.4293 123.459 74.912 120.664 73.248 116.952C71.584 113.197 70.752 108.525 70.752 102.936V91.736H83.232V101.656C83.232 107.075 84.4267 111.043 86.816 113.56C89.2053 116.035 92.704 117.272 97.312 117.272C101.664 117.272 105.141 116.248 107.744 114.2C110.347 112.152 112.075 109.379 112.928 105.88L113.504 116.952H112.16C111.52 118.957 110.411 120.813 108.832 122.52C107.296 124.184 105.269 125.528 102.752 126.552C100.235 127.576 97.2053 128.088 93.664 128.088ZM70.752 94.232V82.328C70.752 80.152 70.3467 78.552 69.536 77.528C68.768 76.4613 67.4453 75.928 65.568 75.928C64.8853 75.928 64.1813 75.992 63.456 76.12C62.7733 76.248 62.112 76.4187 61.472 76.632L62.24 67.288C63.3493 66.904 64.544 66.6053 65.824 66.392C67.1467 66.136 68.5547 66.008 70.048 66.008C74.4427 66.008 77.728 67.2027 79.904 69.592C82.1227 71.9813 83.232 75.672 83.232 80.664V94.232H70.752ZM112.8 111.32V66.712H125.28V111.32H112.8ZM112.8 143V102.808H125.28V143H112.8Z" fill="#232323"/>
<path d="M120.536 116.76V106.136H143.128C148.248 106.136 151.96 104.877 154.264 102.36C156.611 99.8 157.784 96.2587 157.784 91.736V86.168C157.784 81.5173 156.632 77.9547 154.328 75.48C152.024 73.0053 148.333 71.768 143.256 71.768H120.472V61.208H143.512C152.899 61.208 159.747 63.384 164.056 67.736C168.408 72.0453 170.584 78.0827 170.584 85.848V92.056C170.584 99.8213 168.408 105.88 164.056 110.232C159.704 114.584 152.835 116.76 143.448 116.76H120.536ZM112.088 143V61.208H124.696V109.272L124.76 115.032V143H112.088Z" fill="#232323"/>
<path d="M255.059 99.3125H273.02C275.97 99.3125 278.462 98.3242 280.496 96.3477C282.559 94.3424 283.59 91.5208 283.59 87.8828C283.59 85.1615 282.516 82.7266 280.367 80.5781C278.219 78.401 275.77 77.3125 273.02 77.3125H246.465V133H243.371V74.2188H273.02C276.629 74.2188 279.809 75.6081 282.559 78.3867C285.309 81.1654 286.684 84.3307 286.684 87.8828C286.684 92.2656 285.352 95.7891 282.688 98.4531C280.023 101.089 276.801 102.406 273.02 102.406H255.059V99.3125ZM255.059 105.5H273.02C275.999 105.5 278.749 104.784 281.27 103.352C283.819 101.891 285.867 99.7995 287.414 97.0781C288.99 94.3568 289.777 91.2917 289.777 87.8828C289.777 83.4714 288.087 79.5755 284.707 76.1953C281.355 72.8151 277.46 71.125 273.02 71.125H240.277V133H237.184V68.0312H273.02C276.486 68.0312 279.751 68.9479 282.816 70.7812C285.882 72.6146 288.316 75.0638 290.121 78.1289C291.954 81.194 292.871 84.4453 292.871 87.8828C292.871 91.7786 291.954 95.3307 290.121 98.5391C288.288 101.719 285.853 104.197 282.816 105.973C279.809 107.72 276.543 108.594 273.02 108.594H255.059V105.5ZM255.059 111.688H273.02C276.085 111.688 279.021 111.086 281.828 109.883C284.635 108.651 287.07 107.004 289.133 104.941C291.224 102.85 292.885 100.329 294.117 97.3789C295.349 94.3997 295.965 91.2344 295.965 87.8828C295.965 83.8724 294.919 80.1055 292.828 76.582C290.737 73.0299 287.915 70.2083 284.363 68.1172C280.84 65.9974 277.059 64.9375 273.02 64.9375H234.09V133H230.996V61.8438H273.02C277.603 61.8438 281.9 63.0469 285.91 65.4531C289.921 67.8307 293.115 71.0247 295.492 75.0352C297.87 79.0456 299.059 83.3281 299.059 87.8828C299.059 91.9505 298.357 95.7031 296.953 99.1406C295.549 102.549 293.659 105.385 291.281 107.648C288.904 109.911 286.139 111.673 282.988 112.934C279.837 114.165 276.514 114.781 273.02 114.781H255.059V111.688ZM252.652 133H249.559V80.4062H273.02C275.053 80.4062 276.801 81.151 278.262 82.6406C279.751 84.1302 280.496 85.8776 280.496 87.8828C280.496 93.4401 278.004 96.2188 273.02 96.2188H255.059V93.125H273.02C274.395 93.125 275.469 92.7383 276.242 91.9648C277.016 91.1914 277.402 89.8307 277.402 87.8828C277.402 86.6224 276.973 85.5768 276.113 84.7461C275.283 83.9154 274.251 83.5 273.02 83.5H252.652V133ZM329.223 103.438H347.871C350.335 103.438 352.426 102.664 354.145 101.117C355.863 99.5703 356.723 97.3932 356.723 94.5859C356.723 92.5234 355.82 90.6758 354.016 89.043C352.24 87.4102 350.191 86.5938 347.871 86.5938H321.316V133H318.223V83.5H347.871C351.051 83.5 353.829 84.6172 356.207 86.8516C358.613 89.0859 359.816 91.6641 359.816 94.5859C359.816 98.224 358.656 101.132 356.336 103.309C354.016 105.457 351.194 106.531 347.871 106.531H329.223V103.438ZM329.223 109.625H347.871C351.996 109.625 355.534 108.221 358.484 105.414C361.435 102.607 362.91 98.9974 362.91 94.5859C362.91 90.8333 361.406 87.5391 358.398 84.7031C355.391 81.8385 351.882 80.4062 347.871 80.4062H315.129V133H312.035V77.3125H347.871C352.741 77.3125 356.98 79.0456 360.59 82.5117C364.199 85.9492 366.004 89.974 366.004 94.5859C366.004 99.7422 364.214 104.053 360.633 107.52C357.081 110.986 352.827 112.719 347.871 112.719H329.223V109.625ZM329.223 115.812H347.871C351.681 115.812 355.204 114.896 358.441 113.062C361.678 111.229 364.257 108.68 366.176 105.414C368.124 102.148 369.098 98.5391 369.098 94.5859C369.098 91.0052 368.138 87.6536 366.219 84.5312C364.299 81.3802 361.693 78.8737 358.398 77.0117C355.133 75.1497 351.624 74.2188 347.871 74.2188H308.941V133H305.848V71.125H347.871C351.108 71.125 354.216 71.7695 357.195 73.0586C360.203 74.319 362.796 76.0091 364.973 78.1289C367.15 80.2201 368.897 82.7122 370.215 85.6055C371.533 88.4987 372.191 91.4922 372.191 94.5859C372.191 99.599 371.046 103.982 368.754 107.734C366.462 111.458 363.383 114.294 359.516 116.242L366.004 133H362.695L356.551 117.488C355.777 117.746 354.875 118.004 353.844 118.262L359.645 133H356.336L350.664 118.777C349.776 118.863 348.845 118.906 347.871 118.906L353.328 133H350.062L344.648 118.906H341.855L347.055 133H343.789L338.547 118.906H329.223V115.812ZM327.504 133H324.41V89.6875H347.871C349.475 89.6875 350.836 90.1745 351.953 91.1484C353.07 92.0938 353.629 93.2396 353.629 94.5859C353.629 98.4245 351.71 100.344 347.871 100.344H329.223V97.25H347.871C349.647 97.25 350.535 96.362 350.535 94.5859C350.535 94.099 350.263 93.6836 349.719 93.3398C349.203 92.9674 348.587 92.7812 347.871 92.7812H327.504V133ZM397.629 71.125H400.723V133H397.629V71.125ZM391.441 71.125H394.535V133H391.441V71.125ZM385.254 71.125H388.348V133H385.254V71.125ZM379.066 71.125H382.16V133H379.066V71.125ZM464.961 71.125H468.055L448.59 112.117V133H445.496V112.117L464.961 71.125ZM458.773 71.125H461.867L442.402 112.117V133H439.309V112.117L458.773 71.125ZM452.586 71.125H455.68L436.215 112.117V133H433.121V112.117L452.586 71.125ZM446.398 71.125H449.492L430.027 112.117V133H426.934V112.117L406.18 71.125H409.273L428.438 108.98L446.398 71.125ZM412.41 71.125H415.504L430.844 100.301L429.297 103.695L412.41 71.125ZM418.598 71.125H421.734L433.938 93.5117L432.348 96.9062L418.598 71.125ZM424.871 71.125H427.965L437.031 86.7656L435.484 90.1602L424.871 71.125ZM517.254 102.492C517.254 98.8255 516.122 95.9896 513.859 93.9844C511.596 91.9792 508.603 90.9766 504.879 90.9766C501.728 90.9766 499.021 92.0651 496.758 94.2422C494.495 96.4193 493.363 99.026 493.363 102.062C493.363 103.781 493.592 105.328 494.051 106.703C494.509 108.049 495.125 109.181 495.898 110.098C496.701 110.986 497.646 111.73 498.734 112.332C499.823 112.905 500.954 113.32 502.129 113.578C503.332 113.836 504.607 113.965 505.953 113.965C509.219 113.965 512.198 113.163 514.891 111.559V114.652C512.112 116.113 509.118 116.844 505.91 116.844C503.848 116.844 501.9 116.572 500.066 116.027C498.262 115.454 496.615 114.609 495.125 113.492C493.635 112.346 492.447 110.799 491.559 108.852C490.699 106.875 490.27 104.612 490.27 102.062C490.27 98.1094 491.659 94.7578 494.438 92.0078C497.216 89.2578 500.697 87.8828 504.879 87.8828C509.491 87.8828 513.215 89.1862 516.051 91.793C518.915 94.3711 520.348 97.9375 520.348 102.492V133H517.254V102.492ZM526.535 102.492V133H523.441V102.492C523.441 97.0781 521.708 92.7812 518.242 89.6016C514.776 86.3932 510.322 84.7891 504.879 84.7891C499.837 84.7891 495.626 86.4648 492.246 89.8164C488.866 93.168 487.176 97.25 487.176 102.062C487.176 104.984 487.677 107.605 488.68 109.926C489.711 112.246 491.1 114.108 492.848 115.512C494.595 116.915 496.543 117.99 498.691 118.734C500.868 119.451 503.16 119.809 505.566 119.809C508.832 119.809 511.94 119.049 514.891 117.531V120.797C511.797 122.086 508.674 122.73 505.523 122.73C502.688 122.73 499.995 122.301 497.445 121.441C494.896 120.553 492.618 119.279 490.613 117.617C488.608 115.927 487.018 113.75 485.844 111.086C484.669 108.393 484.082 105.385 484.082 102.062C484.082 96.4193 486.073 91.6211 490.055 87.668C494.065 83.6862 499.007 81.6953 504.879 81.6953C509.004 81.6953 512.699 82.5404 515.965 84.2305C519.23 85.8919 521.809 88.3125 523.699 91.4922C525.59 94.6719 526.535 98.3385 526.535 102.492ZM532.723 102.492V133H529.629V102.492C529.629 97.7656 528.54 93.5833 526.363 89.9453C524.215 86.2786 521.264 83.4714 517.512 81.5234C513.759 79.5755 509.548 78.6016 504.879 78.6016C500.439 78.6016 496.385 79.6615 492.719 81.7812C489.052 83.8724 486.173 86.7083 484.082 90.2891C482.02 93.8698 480.988 97.7943 480.988 102.062C480.988 105.729 481.661 109.081 483.008 112.117C484.354 115.125 486.159 117.603 488.422 119.551C490.714 121.499 493.306 123.017 496.199 124.105C499.121 125.165 502.172 125.695 505.352 125.695C508.589 125.695 511.768 125.022 514.891 123.676V126.812C511.625 128.044 508.417 128.66 505.266 128.66C500.31 128.66 495.755 127.543 491.602 125.309C487.448 123.074 484.125 119.909 481.633 115.812C479.141 111.716 477.895 107.133 477.895 102.062C477.895 98.4531 478.582 95.0156 479.957 91.75C481.361 88.4844 483.251 85.6628 485.629 83.2852C488.007 80.9076 490.871 79.0169 494.223 77.6133C497.574 76.2096 501.126 75.5078 504.879 75.5078C510.121 75.5078 514.848 76.625 519.059 78.8594C523.298 81.0938 526.635 84.2734 529.07 88.3984C531.505 92.5234 532.723 97.2214 532.723 102.492ZM538.91 102.492V133H535.816V102.492C535.816 96.6484 534.456 91.4349 531.734 86.8516C529.013 82.2396 525.303 78.6875 520.605 76.1953C515.908 73.6745 510.665 72.4141 504.879 72.4141C499.322 72.4141 494.237 73.7461 489.625 76.4102C485.013 79.0742 481.389 82.6836 478.754 87.2383C476.118 91.7643 474.801 96.7057 474.801 102.062C474.801 105.586 475.359 108.938 476.477 112.117C477.622 115.268 479.169 118.033 481.117 120.41C483.094 122.759 485.357 124.793 487.906 126.512C490.484 128.23 493.249 129.534 496.199 130.422C499.178 131.31 502.201 131.754 505.266 131.754C508.646 131.754 511.854 131.109 514.891 129.82V133C511.711 134.117 508.445 134.676 505.094 134.676C501.628 134.676 498.247 134.189 494.953 133.215C491.688 132.241 488.651 130.809 485.844 128.918C483.065 126.999 480.616 124.75 478.496 122.172C476.376 119.565 474.715 116.529 473.512 113.062C472.309 109.596 471.707 105.93 471.707 102.062C471.707 97.6224 472.538 93.3971 474.199 89.3867C475.889 85.3477 478.181 81.8672 481.074 78.9453C483.996 75.9948 487.52 73.6602 491.645 71.9414C495.798 70.194 500.21 69.3203 504.879 69.3203C509.634 69.3203 514.103 70.1224 518.285 71.7266C522.467 73.3307 526.077 75.5651 529.113 78.4297C532.15 81.2656 534.542 84.7604 536.289 88.9141C538.036 93.0677 538.91 97.5938 538.91 102.492ZM595.371 108.035L592.277 102.406V71.125H595.371V108.035ZM601.559 118.734L598.465 113.492V71.125H601.559V118.734ZM558.934 96.0898L562.027 101.719V133H558.934V96.0898ZM552.746 84.9609L555.84 90.6328V133H552.746V84.9609ZM553.82 71.125H557.43L593.266 133H589.656L553.82 71.125ZM561.125 71.125H564.777L600.57 133H596.875L561.125 71.125ZM568.387 71.125H571.996L604.652 127.629V71.125H607.746V133H604.094L568.387 71.125ZM549.652 76.4531V133H546.559V71.125H550.254L585.961 133H582.395L549.652 76.4531ZM680.836 71.125L663.605 102.32L680.578 133H677.141L660.168 102.32L677.398 71.125H680.836ZM673.918 71.125L656.688 102.32L673.66 133H670.223L653.25 102.32L670.48 71.125H673.918ZM667 71.125L649.77 102.32L666.742 133H663.305L646.332 102.32L663.562 71.125H667ZM660.082 71.125L642.809 102.32L659.824 133H656.387L639.371 102.32L656.645 71.125H660.082ZM634.387 71.125V133H637.48V71.125H634.387ZM628.199 71.125V133H631.293V71.125H628.199ZM622.012 71.125V133H625.105V71.125H622.012ZM615.824 71.125V133H618.918V71.125H615.824ZM730.293 102.492C730.293 98.8255 729.161 95.9896 726.898 93.9844C724.635 91.9792 721.642 90.9766 717.918 90.9766C714.767 90.9766 712.06 92.0651 709.797 94.2422C707.534 96.4193 706.402 99.026 706.402 102.062C706.402 103.781 706.632 105.328 707.09 106.703C707.548 108.049 708.164 109.181 708.938 110.098C709.74 110.986 710.685 111.73 711.773 112.332C712.862 112.905 713.993 113.32 715.168 113.578C716.371 113.836 717.646 113.965 718.992 113.965C722.258 113.965 725.237 113.163 727.93 111.559V114.652C725.151 116.113 722.158 116.844 718.949 116.844C716.887 116.844 714.939 116.572 713.105 116.027C711.301 115.454 709.654 114.609 708.164 113.492C706.674 112.346 705.486 110.799 704.598 108.852C703.738 106.875 703.309 104.612 703.309 102.062C703.309 98.1094 704.698 94.7578 707.477 92.0078C710.255 89.2578 713.736 87.8828 717.918 87.8828C722.53 87.8828 726.254 89.1862 729.09 91.793C731.954 94.3711 733.387 97.9375 733.387 102.492V133H730.293V102.492ZM739.574 102.492V133H736.48V102.492C736.48 97.0781 734.747 92.7812 731.281 89.6016C727.815 86.3932 723.361 84.7891 717.918 84.7891C712.876 84.7891 708.665 86.4648 705.285 89.8164C701.905 93.168 700.215 97.25 700.215 102.062C700.215 104.984 700.716 107.605 701.719 109.926C702.75 112.246 704.139 114.108 705.887 115.512C707.634 116.915 709.582 117.99 711.73 118.734C713.908 119.451 716.199 119.809 718.605 119.809C721.871 119.809 724.979 119.049 727.93 117.531V120.797C724.836 122.086 721.714 122.73 718.562 122.73C715.727 122.73 713.034 122.301 710.484 121.441C707.935 120.553 705.658 119.279 703.652 117.617C701.647 115.927 700.057 113.75 698.883 111.086C697.708 108.393 697.121 105.385 697.121 102.062C697.121 96.4193 699.112 91.6211 703.094 87.668C707.104 83.6862 712.046 81.6953 717.918 81.6953C722.043 81.6953 725.738 82.5404 729.004 84.2305C732.27 85.8919 734.848 88.3125 736.738 91.4922C738.629 94.6719 739.574 98.3385 739.574 102.492ZM745.762 102.492V133H742.668V102.492C742.668 97.7656 741.579 93.5833 739.402 89.9453C737.254 86.2786 734.303 83.4714 730.551 81.5234C726.798 79.5755 722.587 78.6016 717.918 78.6016C713.478 78.6016 709.424 79.6615 705.758 81.7812C702.091 83.8724 699.212 86.7083 697.121 90.2891C695.059 93.8698 694.027 97.7943 694.027 102.062C694.027 105.729 694.701 109.081 696.047 112.117C697.393 115.125 699.198 117.603 701.461 119.551C703.753 121.499 706.345 123.017 709.238 124.105C712.16 125.165 715.211 125.695 718.391 125.695C721.628 125.695 724.807 125.022 727.93 123.676V126.812C724.664 128.044 721.456 128.66 718.305 128.66C713.349 128.66 708.794 127.543 704.641 125.309C700.487 123.074 697.164 119.909 694.672 115.812C692.18 111.716 690.934 107.133 690.934 102.062C690.934 98.4531 691.621 95.0156 692.996 91.75C694.4 88.4844 696.29 85.6628 698.668 83.2852C701.046 80.9076 703.91 79.0169 707.262 77.6133C710.613 76.2096 714.165 75.5078 717.918 75.5078C723.16 75.5078 727.887 76.625 732.098 78.8594C736.337 81.0938 739.674 84.2734 742.109 88.3984C744.544 92.5234 745.762 97.2214 745.762 102.492ZM751.949 102.492V133H748.855V102.492C748.855 96.6484 747.495 91.4349 744.773 86.8516C742.052 82.2396 738.342 78.6875 733.645 76.1953C728.947 73.6745 723.704 72.4141 717.918 72.4141C712.361 72.4141 707.276 73.7461 702.664 76.4102C698.052 79.0742 694.428 82.6836 691.793 87.2383C689.158 91.7643 687.84 96.7057 687.84 102.062C687.84 105.586 688.398 108.938 689.516 112.117C690.661 115.268 692.208 118.033 694.156 120.41C696.133 122.759 698.396 124.793 700.945 126.512C703.523 128.23 706.288 129.534 709.238 130.422C712.217 131.31 715.24 131.754 718.305 131.754C721.685 131.754 724.893 131.109 727.93 129.82V133C724.75 134.117 721.484 134.676 718.133 134.676C714.667 134.676 711.286 134.189 707.992 133.215C704.727 132.241 701.69 130.809 698.883 128.918C696.104 126.999 693.655 124.75 691.535 122.172C689.415 119.565 687.754 116.529 686.551 113.062C685.348 109.596 684.746 105.93 684.746 102.062C684.746 97.6224 685.577 93.3971 687.238 89.3867C688.928 85.3477 691.22 81.8672 694.113 78.9453C697.035 75.9948 700.559 73.6602 704.684 71.9414C708.837 70.194 713.249 69.3203 717.918 69.3203C722.673 69.3203 727.142 70.1224 731.324 71.7266C735.507 73.3307 739.116 75.5651 742.152 78.4297C745.189 81.2656 747.581 84.7604 749.328 88.9141C751.076 93.0677 751.949 97.5938 751.949 102.492ZM821.816 99.3125H839.777C842.728 99.3125 845.22 98.3242 847.254 96.3477C849.316 94.3424 850.348 91.5208 850.348 87.8828C850.348 85.1615 849.273 82.7266 847.125 80.5781C844.977 78.401 842.527 77.3125 839.777 77.3125H813.223V133H810.129V74.2188H839.777C843.387 74.2188 846.566 75.6081 849.316 78.3867C852.066 81.1654 853.441 84.3307 853.441 87.8828C853.441 92.2656 852.109 95.7891 849.445 98.4531C846.781 101.089 843.559 102.406 839.777 102.406H821.816V99.3125ZM821.816 105.5H839.777C842.757 105.5 845.507 104.784 848.027 103.352C850.577 101.891 852.625 99.7995 854.172 97.0781C855.747 94.3568 856.535 91.2917 856.535 87.8828C856.535 83.4714 854.845 79.5755 851.465 76.1953C848.113 72.8151 844.217 71.125 839.777 71.125H807.035V133H803.941V68.0312H839.777C843.243 68.0312 846.509 68.9479 849.574 70.7812C852.639 72.6146 855.074 75.0638 856.879 78.1289C858.712 81.194 859.629 84.4453 859.629 87.8828C859.629 91.7786 858.712 95.3307 856.879 98.5391C855.046 101.719 852.611 104.197 849.574 105.973C846.566 107.72 843.301 108.594 839.777 108.594H821.816V105.5ZM821.816 111.688H839.777C842.842 111.688 845.779 111.086 848.586 109.883C851.393 108.651 853.828 107.004 855.891 104.941C857.982 102.85 859.643 100.329 860.875 97.3789C862.107 94.3997 862.723 91.2344 862.723 87.8828C862.723 83.8724 861.677 80.1055 859.586 76.582C857.495 73.0299 854.673 70.2083 851.121 68.1172C847.598 65.9974 843.816 64.9375 839.777 64.9375H800.848V133H797.754V61.8438H839.777C844.361 61.8438 848.658 63.0469 852.668 65.4531C856.678 67.8307 859.872 71.0247 862.25 75.0352C864.628 79.0456 865.816 83.3281 865.816 87.8828C865.816 91.9505 865.115 95.7031 863.711 99.1406C862.307 102.549 860.417 105.385 858.039 107.648C855.661 109.911 852.897 111.673 849.746 112.934C846.595 114.165 843.272 114.781 839.777 114.781H821.816V111.688ZM819.41 133H816.316V80.4062H839.777C841.811 80.4062 843.559 81.151 845.02 82.6406C846.509 84.1302 847.254 85.8776 847.254 87.8828C847.254 93.4401 844.762 96.2188 839.777 96.2188H821.816V93.125H839.777C841.152 93.125 842.227 92.7383 843 91.9648C843.773 91.1914 844.16 89.8307 844.16 87.8828C844.16 86.6224 843.73 85.5768 842.871 84.7461C842.04 83.9154 841.009 83.5 839.777 83.5H819.41V133ZM916.52 102.492C916.52 98.8255 915.388 95.9896 913.125 93.9844C910.862 91.9792 907.868 90.9766 904.145 90.9766C900.993 90.9766 898.286 92.0651 896.023 94.2422C893.76 96.4193 892.629 99.026 892.629 102.062C892.629 103.781 892.858 105.328 893.316 106.703C893.775 108.049 894.391 109.181 895.164 110.098C895.966 110.986 896.911 111.73 898 112.332C899.089 112.905 900.22 113.32 901.395 113.578C902.598 113.836 903.872 113.965 905.219 113.965C908.484 113.965 911.464 113.163 914.156 111.559V114.652C911.378 116.113 908.384 116.844 905.176 116.844C903.113 116.844 901.165 116.572 899.332 116.027C897.527 115.454 895.88 114.609 894.391 113.492C892.901 112.346 891.712 110.799 890.824 108.852C889.965 106.875 889.535 104.612 889.535 102.062C889.535 98.1094 890.924 94.7578 893.703 92.0078C896.482 89.2578 899.962 87.8828 904.145 87.8828C908.757 87.8828 912.48 89.1862 915.316 91.793C918.181 94.3711 919.613 97.9375 919.613 102.492V133H916.52V102.492ZM925.801 102.492V133H922.707V102.492C922.707 97.0781 920.974 92.7812 917.508 89.6016C914.042 86.3932 909.587 84.7891 904.145 84.7891C899.103 84.7891 894.892 86.4648 891.512 89.8164C888.132 93.168 886.441 97.25 886.441 102.062C886.441 104.984 886.943 107.605 887.945 109.926C888.977 112.246 890.366 114.108 892.113 115.512C893.861 116.915 895.809 117.99 897.957 118.734C900.134 119.451 902.426 119.809 904.832 119.809C908.098 119.809 911.206 119.049 914.156 117.531V120.797C911.062 122.086 907.94 122.73 904.789 122.73C901.953 122.73 899.26 122.301 896.711 121.441C894.161 120.553 891.884 119.279 889.879 117.617C887.874 115.927 886.284 113.75 885.109 111.086C883.935 108.393 883.348 105.385 883.348 102.062C883.348 96.4193 885.339 91.6211 889.32 87.668C893.331 83.6862 898.272 81.6953 904.145 81.6953C908.27 81.6953 911.965 82.5404 915.23 84.2305C918.496 85.8919 921.074 88.3125 922.965 91.4922C924.855 94.6719 925.801 98.3385 925.801 102.492ZM931.988 102.492V133H928.895V102.492C928.895 97.7656 927.806 93.5833 925.629 89.9453C923.48 86.2786 920.53 83.4714 916.777 81.5234C913.025 79.5755 908.814 78.6016 904.145 78.6016C899.704 78.6016 895.651 79.6615 891.984 81.7812C888.318 83.8724 885.439 86.7083 883.348 90.2891C881.285 93.8698 880.254 97.7943 880.254 102.062C880.254 105.729 880.927 109.081 882.273 112.117C883.62 115.125 885.424 117.603 887.688 119.551C889.979 121.499 892.572 123.017 895.465 124.105C898.387 125.165 901.438 125.695 904.617 125.695C907.854 125.695 911.034 125.022 914.156 123.676V126.812C910.891 128.044 907.682 128.66 904.531 128.66C899.576 128.66 895.021 127.543 890.867 125.309C886.714 123.074 883.391 119.909 880.898 115.812C878.406 111.716 877.16 107.133 877.16 102.062C877.16 98.4531 877.848 95.0156 879.223 91.75C880.626 88.4844 882.517 85.6628 884.895 83.2852C887.272 80.9076 890.137 79.0169 893.488 77.6133C896.84 76.2096 900.392 75.5078 904.145 75.5078C909.387 75.5078 914.113 76.625 918.324 78.8594C922.564 81.0938 925.901 84.2734 928.336 88.3984C930.771 92.5234 931.988 97.2214 931.988 102.492ZM938.176 102.492V133H935.082V102.492C935.082 96.6484 933.721 91.4349 931 86.8516C928.279 82.2396 924.569 78.6875 919.871 76.1953C915.173 73.6745 909.931 72.4141 904.145 72.4141C898.587 72.4141 893.503 73.7461 888.891 76.4102C884.279 79.0742 880.655 82.6836 878.02 87.2383C875.384 91.7643 874.066 96.7057 874.066 102.062C874.066 105.586 874.625 108.938 875.742 112.117C876.888 115.268 878.435 118.033 880.383 120.41C882.359 122.759 884.622 124.793 887.172 126.512C889.75 128.23 892.514 129.534 895.465 130.422C898.444 131.31 901.466 131.754 904.531 131.754C907.911 131.754 911.12 131.109 914.156 129.82V133C910.977 134.117 907.711 134.676 904.359 134.676C900.893 134.676 897.513 134.189 894.219 133.215C890.953 132.241 887.917 130.809 885.109 128.918C882.331 126.999 879.882 124.75 877.762 122.172C875.642 119.565 873.98 116.529 872.777 113.062C871.574 109.596 870.973 105.93 870.973 102.062C870.973 97.6224 871.803 93.3971 873.465 89.3867C875.155 85.3477 877.447 81.8672 880.34 78.9453C883.262 75.9948 886.785 73.6602 890.91 71.9414C895.064 70.194 899.475 69.3203 904.145 69.3203C908.9 69.3203 913.368 70.1224 917.551 71.7266C921.733 73.3307 925.342 75.5651 928.379 78.4297C931.415 81.2656 933.807 84.7604 935.555 88.9141C937.302 93.0677 938.176 97.5938 938.176 102.492ZM956.781 88.2695H959.875V133H956.781V88.2695ZM944.406 74.2188V71.125H990.812V74.2188H944.406ZM944.406 80.4062V77.3125H990.812V80.4062H944.406ZM944.406 86.5938V83.5H990.812V86.5938H944.406ZM975.344 88.2695H978.438V133H975.344V88.2695ZM969.156 88.2695H972.25V133H969.156V88.2695ZM962.969 88.2695H966.062V133H962.969V88.2695ZM1013.11 133H1010.02V71.125H1013.11V133ZM1006.93 133H1003.83V71.125H1006.93V133ZM1000.74 133H997.645V71.125H1000.74V133ZM1019.3 117.531H1048.91V120.625H1019.3V123.719H1048.91V126.812H1019.3V129.906H1048.91V133H1016.21V71.125H1048.91V74.2188H1019.3V77.3125H1048.91V80.4062H1019.3V83.5H1048.91V86.5938H1019.3V94.2852H1047.19V97.3789H1019.3V100.473H1047.19V103.566H1019.3V106.66H1047.19V109.754H1019.3V117.531ZM1056.34 71.125H1059.43V133H1056.34V71.125ZM1074.9 71.125H1078V117.531H1100.81V120.625H1078V123.719H1100.81V126.812H1078V129.906H1100.81V133H1074.9V71.125ZM1068.71 71.125H1071.81V133H1068.71V71.125ZM1062.53 71.125H1065.62V133H1062.53V71.125Z" fill="#232323"/>
</svg>
