<svg width="155" height="155" viewBox="0 0 155 155" fill="none" xmlns="http://www.w3.org/2000/svg">
<rect width="155" height="155" rx="20" fill="#E2FF60" fill-opacity="0.9"/>
<path d="M53.664 106.088C48.5013 106.088 44.2133 105.171 40.8 103.336C37.4293 101.459 34.912 98.664 33.248 94.952C31.584 91.1973 30.752 86.5253 30.752 80.936V69.736H43.232V79.656C43.232 85.0747 44.4267 89.0427 46.816 91.56C49.2053 94.0347 52.704 95.272 57.312 95.272C61.664 95.272 65.1413 94.248 67.744 92.2C70.3467 90.152 72.0747 87.3787 72.928 83.88L73.504 94.952H72.16C71.52 96.9573 70.4107 98.8133 68.832 100.52C67.296 102.184 65.2693 103.528 62.752 104.552C60.2347 105.576 57.2053 106.088 53.664 106.088ZM30.752 72.232V60.328C30.752 58.152 30.3467 56.552 29.536 55.528C28.768 54.4613 27.4453 53.928 25.568 53.928C24.8853 53.928 24.1813 53.992 23.456 54.12C22.7733 54.248 22.112 54.4187 21.472 54.632L22.24 45.288C23.3493 44.904 24.544 44.6053 25.824 44.392C27.1467 44.136 28.5547 44.008 30.048 44.008C34.4427 44.008 37.728 45.2027 39.904 47.592C42.1227 49.9813 43.232 53.672 43.232 58.664V72.232H30.752ZM72.8 89.32V44.712H85.28V89.32H72.8ZM72.8 121V80.808H85.28V121H72.8Z" fill="#232323"/>
<path d="M80.536 94.76V84.136H103.128C108.248 84.136 111.96 82.8773 114.264 80.36C116.611 77.8 117.784 74.2587 117.784 69.736V64.168C117.784 59.5173 116.632 55.9547 114.328 53.48C112.024 51.0053 108.333 49.768 103.256 49.768H80.472V39.208H103.512C112.899 39.208 119.747 41.384 124.056 45.736C128.408 50.0453 130.584 56.0827 130.584 63.848V70.056C130.584 77.8213 128.408 83.88 124.056 88.232C119.704 92.584 112.835 94.76 103.448 94.76H80.536ZM72.088 121V39.208H84.696V87.272L84.76 93.032V121H72.088Z" fill="#232323"/>
</svg>
