<svg width="18" height="18" viewBox="0 0 18 18" fill="none" xmlns="http://www.w3.org/2000/svg">
<rect width="18" height="18" rx="9" fill="black"/>
<path d="M8.06441 8.71963H8.00141L8.14141 8.64263C8.43172 8.49305 8.65847 8.24394 8.78016 7.94088C8.8904 7.62311 8.91948 7.28283 8.86475 6.95096C8.8321 6.6575 8.72106 6.37824 8.54329 6.14248C8.36552 5.90672 8.12757 5.72315 7.85441 5.61105C7.50009 5.45798 7.11744 5.38145 6.7315 5.38646H3.16675V12.593H6.42291C6.73311 12.5933 7.04278 12.5675 7.34866 12.516C7.68263 12.4686 7.99945 12.3384 8.27033 12.1374C8.54122 11.9364 8.75758 11.6709 8.89975 11.365C9.11232 10.9296 9.17389 10.4358 9.07475 9.96155C9.03283 9.68302 8.91698 9.42084 8.73928 9.2023C8.56158 8.98377 8.32853 8.81689 8.06441 8.71905V8.71963ZM4.85841 6.64296H6.26191C6.49878 6.64285 6.73466 6.67344 6.96366 6.73396C7.08812 6.76334 7.20004 6.83149 7.28328 6.92856C7.36652 7.02564 7.41678 7.14664 7.42683 7.27413C7.45559 7.41776 7.45559 7.56567 7.42683 7.7093C7.40666 7.79041 7.3693 7.86625 7.31726 7.93167C7.26523 7.99709 7.19975 8.05056 7.12525 8.08846C6.90783 8.19751 6.6666 8.25045 6.4235 8.24246H4.84383L4.85841 6.64296ZM7.57383 10.6703C7.54224 10.8404 7.45722 10.9961 7.33113 11.1146C7.20504 11.2332 7.04444 11.3084 6.87266 11.3295C6.7201 11.36 6.56507 11.3766 6.4095 11.379H4.84383V9.47038H6.51391C6.6932 9.47054 6.87115 9.50132 7.04008 9.56138C7.19053 9.60898 7.32255 9.702 7.41802 9.82765C7.51348 9.9533 7.56771 10.1054 7.57325 10.2631C7.59155 10.3982 7.59155 10.5352 7.57325 10.6703H7.57383ZM14.8299 10.2001C14.8369 10.1861 14.8369 10.1721 14.8159 10.1861V9.40738C14.8088 9.05052 14.7274 8.69906 14.5767 8.37546C14.3488 7.88918 13.949 7.50439 13.4544 7.29513C12.9103 7.07152 12.3125 7.01289 11.7353 7.12655C11.2969 7.18766 10.8859 7.37568 10.553 7.66745C10.2201 7.95922 9.97976 8.34199 9.86166 8.76863C9.65676 9.42333 9.62779 10.1204 9.77766 10.7899C9.84768 11.1675 10.0228 11.5176 10.2828 11.8002C10.6144 12.1388 11.0315 12.3813 11.4897 12.502C11.9308 12.6224 12.3926 12.6462 12.8437 12.572C13.4107 12.503 13.9327 12.2284 14.3107 11.8002C14.4988 11.5997 14.6402 11.36 14.7249 11.0985C14.7649 11.0386 14.7823 10.9664 14.7739 10.8949H13.3984C13.3838 10.8937 13.3692 10.8971 13.3567 10.9046C13.3441 10.9122 13.3342 10.9234 13.3284 10.9369C13.2596 11.0725 13.1606 11.1905 13.0389 11.2818C12.9172 11.373 12.7761 11.435 12.6267 11.463C12.4182 11.5057 12.2033 11.5057 11.9949 11.463C11.8159 11.4362 11.6461 11.366 11.5005 11.2584C11.3549 11.1508 11.2378 11.0092 11.1596 10.8459C11.0981 10.7126 11.0579 10.5705 11.0406 10.4247V10.2001H14.8299ZM11.1246 9.1898C11.1555 9.07759 11.1931 8.96734 11.2372 8.85963C11.3114 8.67573 11.4382 8.51778 11.6017 8.40553C11.7652 8.29328 11.9582 8.23169 12.1565 8.22846C12.3636 8.20877 12.5725 8.23752 12.7667 8.31246C12.9426 8.37985 13.0969 8.49384 13.213 8.64222C13.3292 8.79061 13.4027 8.9678 13.4258 9.1548V9.3018L11.1246 9.3228C11.1221 9.2785 11.1221 9.23409 11.1246 9.1898ZM13.7 5.68105H10.781V6.52338L13.7 6.51638V5.68105Z" fill="white"/>
</svg>
