<svg width="24" height="24" viewBox="0 0 24 24" fill="none" xmlns="http://www.w3.org/2000/svg">
<rect width="24" height="24" rx="12" fill="#797979"/>
<path d="M10.6634 11.5994H10.5734L10.7734 11.4894C11.1881 11.2757 11.5121 10.9198 11.6859 10.4869C11.8434 10.0329 11.8849 9.54683 11.8067 9.07273C11.7601 8.65351 11.6015 8.25456 11.3475 7.91776C11.0936 7.58096 10.7536 7.31872 10.3634 7.15857C9.85724 6.9399 9.31059 6.83057 8.75925 6.83773H3.66675V17.1327H8.31842C8.76155 17.1331 9.20394 17.0963 9.64092 17.0227C10.118 16.955 10.5706 16.7691 10.9576 16.482C11.3446 16.1948 11.6536 15.8155 11.8568 15.3786C12.1604 14.7565 12.2484 14.0511 12.1068 13.3736C12.0469 12.9757 11.8814 12.6011 11.6275 12.2889C11.3737 11.9767 11.0407 11.7383 10.6634 11.5986V11.5994ZM6.08342 8.63273H8.08842C8.4268 8.63258 8.76377 8.67628 9.09092 8.76273C9.26871 8.80471 9.42859 8.90205 9.54751 9.04074C9.66642 9.17942 9.73823 9.35228 9.75258 9.5344C9.79366 9.73959 9.79366 9.95088 9.75258 10.1561C9.72377 10.2719 9.67039 10.3803 9.59606 10.4737C9.52173 10.5672 9.42818 10.6436 9.32175 10.6977C9.01116 10.8535 8.66653 10.9291 8.31925 10.9177H6.06258L6.08342 8.63273ZM9.96258 14.3861C9.91745 14.6291 9.796 14.8515 9.61587 15.0208C9.43574 15.1902 9.20631 15.2977 8.96092 15.3277C8.74296 15.3714 8.5215 15.3951 8.29925 15.3986H6.06258V12.6719H8.44842C8.70454 12.6721 8.95875 12.7161 9.20008 12.8019C9.41501 12.8699 9.60362 13.0028 9.74 13.1823C9.87638 13.3618 9.95384 13.5791 9.96175 13.8044C9.98789 13.9974 9.98789 14.1931 9.96175 14.3861H9.96258ZM20.3284 13.7144C20.3384 13.6944 20.3384 13.6744 20.3084 13.6944V12.5819C20.2983 12.0721 20.1819 11.57 19.9668 11.1077C19.6411 10.413 19.07 9.86334 18.3634 9.5644C17.5862 9.24496 16.7321 9.1612 15.9076 9.32357C15.2812 9.41087 14.6941 9.67947 14.2185 10.0963C13.7429 10.5131 13.3996 11.0599 13.2309 11.6694C12.9382 12.6047 12.8968 13.6005 13.1109 14.5569C13.2109 15.0963 13.4611 15.5966 13.8326 16.0002C14.3063 16.4839 14.9021 16.8303 15.5568 17.0027C16.1868 17.1747 16.8465 17.2089 17.4909 17.1027C18.3009 17.0041 19.0466 16.6119 19.5868 16.0002C19.8554 15.7137 20.0574 15.3714 20.1784 14.9977C20.2355 14.9122 20.2603 14.8091 20.2484 14.7069H18.2834C18.2626 14.7052 18.2417 14.7101 18.2238 14.7208C18.2058 14.7316 18.1917 14.7477 18.1834 14.7669C18.0851 14.9607 17.9436 15.1293 17.7698 15.2596C17.596 15.3899 17.3945 15.4785 17.1809 15.5186C16.8832 15.5795 16.5762 15.5795 16.2784 15.5186C16.0226 15.4803 15.7801 15.3799 15.5721 15.2262C15.3641 15.0725 15.1969 14.8702 15.0851 14.6369C14.9972 14.4465 14.9399 14.2435 14.9151 14.0352V13.7144H20.3284ZM15.0351 12.2711C15.0792 12.1108 15.1329 11.9533 15.1959 11.7994C15.302 11.5367 15.4832 11.311 15.7167 11.1507C15.9503 10.9903 16.226 10.9023 16.5093 10.8977C16.8052 10.8696 17.1036 10.9107 17.3809 11.0177C17.6323 11.114 17.8527 11.2768 18.0186 11.4888C18.1845 11.7008 18.2896 11.9539 18.3226 12.2211V12.4311L15.0351 12.4611C15.0315 12.3978 15.0315 12.3343 15.0351 12.2711ZM18.7143 7.25857H14.5443V8.4619L18.7143 8.4519V7.25857Z" fill="black"/>
</svg>
