<svg width="22" height="22" viewBox="0 0 22 22" fill="none" xmlns="http://www.w3.org/2000/svg">
<path d="M11 2.5625C9.33122 2.5625 7.69992 3.05735 6.31238 3.98448C4.92484 4.9116 3.84338 6.22936 3.20477 7.77111C2.56616 9.31286 2.39907 11.0094 2.72463 12.6461C3.05019 14.2828 3.85379 15.7862 5.03379 16.9662C6.2138 18.1462 7.71721 18.9498 9.35393 19.2754C10.9906 19.6009 12.6871 19.4338 14.2289 18.7952C15.7706 18.1566 17.0884 17.0752 18.0155 15.6876C18.9427 14.3001 19.4375 12.6688 19.4375 11C19.435 8.763 18.5453 6.61833 16.9635 5.03653C15.3817 3.45473 13.237 2.56498 11 2.5625ZM17.4945 10.0625H17.2508C16.1609 10.0631 15.0751 10.1958 14.0172 10.4578C13.7879 9.82129 13.5105 9.2031 13.1875 8.60859C14.1288 8.01076 14.9922 7.29827 15.7578 6.4875C16.6936 7.47011 17.3006 8.7195 17.4945 10.0625ZM14.2813 5.32031C13.6475 5.9707 12.9395 6.54442 12.1719 7.02969C11.4842 6.10564 10.6813 5.27313 9.78282 4.55234C11.3259 4.25854 12.9231 4.53121 14.2813 5.32031ZM7.68282 5.34141C8.75198 6.0381 9.69948 6.90563 10.4875 7.90938C9.06699 8.50707 7.54114 8.81415 6 8.8125C5.60938 8.8125 5.21875 8.79219 4.83282 8.75391C5.35947 7.32121 6.36633 6.1153 7.68203 5.34141H7.68282ZM4.4375 11C4.4375 10.8648 4.44297 10.7313 4.45078 10.5984C4.96509 10.6574 5.48233 10.6872 6 10.6875C7.90835 10.6891 9.7951 10.2837 11.5344 9.49844C11.8042 9.99226 12.0371 10.5054 12.2313 11.0336C11.6525 11.2659 11.0907 11.5384 10.55 11.8492C8.90114 12.8012 7.47201 14.0908 6.35625 15.6336C5.74749 15.0253 5.26467 14.303 4.93542 13.5079C4.60618 12.7128 4.43698 11.8606 4.4375 11ZM7.85703 16.7594C8.8203 15.4191 10.0576 14.299 11.4867 13.4734C11.8904 13.2415 12.3079 13.0344 12.7367 12.8531C12.8753 13.574 12.9452 14.3065 12.9453 15.0406C12.9459 15.8103 12.87 16.5781 12.7188 17.3328C11.0852 17.7773 9.34304 17.5718 7.85782 16.7594H7.85703ZM14.7547 16.3773C14.7984 15.9336 14.8219 15.4867 14.8219 15.0383C14.8213 14.1052 14.7239 13.1747 14.5313 12.2617C15.4216 12.0471 16.3342 11.9382 17.25 11.9375H17.493C17.364 12.8253 17.0545 13.6773 16.5835 14.4409C16.1125 15.2045 15.4901 15.8635 14.7547 16.3773Z" fill="black"/>
</svg>
