<svg width="18" height="18" viewBox="0 0 18 18" fill="none" xmlns="http://www.w3.org/2000/svg">
<path fill-rule="evenodd" clip-rule="evenodd" d="M3.375 1.125C2.77826 1.125 2.20597 1.36205 1.78401 1.78401C1.36205 2.20597 1.125 2.77826 1.125 3.375V14.625C1.125 15.2217 1.36205 15.794 1.78401 16.216C2.20597 16.6379 2.77826 16.875 3.375 16.875H14.625C15.2217 16.875 15.794 16.6379 16.216 16.216C16.6379 15.794 16.875 15.2217 16.875 14.625V3.375C16.875 2.77826 16.6379 2.20597 16.216 1.78401C15.794 1.36205 15.2217 1.125 14.625 1.125H3.375ZM4.61475 5.95912C4.9713 5.95912 5.31325 5.81749 5.56537 5.56537C5.81749 5.31325 5.95912 4.9713 5.95912 4.61475C5.95912 4.2582 5.81749 3.91625 5.56537 3.66413C5.31325 3.41201 4.9713 3.27038 4.61475 3.27038C4.2582 3.27038 3.91625 3.41201 3.66413 3.66413C3.41201 3.91625 3.27038 4.2582 3.27038 4.61475C3.27038 4.9713 3.41201 5.31325 3.66413 5.56537C3.91625 5.81749 4.2582 5.95912 4.61475 5.95912ZM5.73975 14.4146V7.01325H3.48975V14.4146H5.73975ZM7.23375 7.01325H9.48375V8.00437C9.81563 7.48462 10.5446 6.78488 11.9003 6.78488C13.518 6.78488 14.3966 7.857 14.3966 9.89662C14.3966 9.9945 14.4056 10.4411 14.4056 10.4411V14.4135H12.1556V10.4422C12.1556 9.89662 12.0409 8.8245 10.8281 8.8245C9.61425 8.8245 9.51188 10.1723 9.48375 11.0543V14.4135H7.23375V7.01325Z" fill="black"/>
</svg>
