<svg width="32" height="32" viewBox="0 0 32 32" fill="none" xmlns="http://www.w3.org/2000/svg">
<path d="M8.50083 13.0907C9.32918 13.0907 10.0007 12.4395 10.0007 11.6362C10.0007 10.8329 9.32918 10.1816 8.50083 10.1816C7.67248 10.1816 7.00098 10.8329 7.00098 11.6362C7.00098 12.4395 7.67248 13.0907 8.50083 13.0907Z" fill="black"/>
<path d="M8.50083 17.455C9.32918 17.455 10.0007 16.8038 10.0007 16.0004C10.0007 15.1971 9.32918 14.5459 8.50083 14.5459C7.67248 14.5459 7.00098 15.1971 7.00098 16.0004C7.00098 16.8038 7.67248 17.455 8.50083 17.455Z" fill="black"/>
<path d="M8.50083 21.8183C9.32918 21.8183 10.0007 21.167 10.0007 20.3637C10.0007 19.5604 9.32918 18.9092 8.50083 18.9092C7.67248 18.9092 7.00098 19.5604 7.00098 20.3637C7.00098 21.167 7.67248 21.8183 8.50083 21.8183Z" fill="black"/>
<path d="M24.2491 12.3637H13.7502C13.3302 12.3637 13.0002 12.0437 13.0002 11.6365C13.0002 11.2292 13.3302 10.9092 13.7502 10.9092H24.2491C24.6691 10.9092 24.9991 11.2292 24.9991 11.6365C24.9991 12.0437 24.6691 12.3637 24.2491 12.3637ZM24.2491 16.7274H13.7502C13.3302 16.7274 13.0002 16.4074 13.0002 16.0001C13.0002 15.5928 13.3302 15.2728 13.7502 15.2728H24.2491C24.6691 15.2728 24.9991 15.5928 24.9991 16.0001C24.9991 16.4074 24.6691 16.7274 24.2491 16.7274ZM24.2491 21.091H13.7502C13.3302 21.091 13.0002 20.771 13.0002 20.3637C13.0002 19.9565 13.3302 19.6365 13.7502 19.6365H24.2491C24.6691 19.6365 24.9991 19.9565 24.9991 20.3637C24.9991 20.771 24.6691 21.091 24.2491 21.091Z" fill="black"/>
</svg>
